<mxfile host="app.diagrams.net" agent="Mozilla/5.0 (Windows NT 10.0; Win64; x64) AppleWebKit/537.36 (KHTML, like Gecko) Chrome/135.0.0.0 Safari/537.36" version="26.2.13">
  <diagram id="2f404044-711c-603c-8f00-f6bb4c023d3c" name="Page-1">
    <mxGraphModel dx="1667" dy="743" grid="1" gridSize="10" guides="1" tooltips="1" connect="1" arrows="1" fold="1" page="1" pageScale="1" pageWidth="827" pageHeight="1169" background="none" math="0" shadow="0">
      <root>
        <mxCell id="0" />
        <mxCell id="1" parent="0" />
        <mxCell id="63" value="" style="swimlane;shadow=0;strokeColor=#4277BB;fillColor=#ffffff;fontColor=#4277BB;align=right;startSize=0;collapsible=0;strokeWidth=3;" parent="1" vertex="1">
          <mxGeometry x="50" y="20" width="690" height="620" as="geometry" />
        </mxCell>
        <mxCell id="bvLhNwato9O84c9rAopM-464" style="edgeStyle=orthogonalEdgeStyle;rounded=0;html=1;labelBackgroundColor=#ffffff;startArrow=classic;startFill=0;startSize=4;endArrow=classic;endFill=1;endSize=4;jettySize=auto;orthogonalLoop=1;strokeColor=#EEC11B;strokeWidth=2;fontSize=12;fontColor=#4277BB;entryX=0.5;entryY=0;entryDx=0;entryDy=0;" edge="1" parent="63" target="298">
          <mxGeometry relative="1" as="geometry">
            <Array as="points">
              <mxPoint x="329" y="239.75" />
              <mxPoint x="329" y="239.75" />
            </Array>
            <mxPoint x="329" y="235.75" as="sourcePoint" />
            <mxPoint x="400" y="320.75" as="targetPoint" />
          </mxGeometry>
        </mxCell>
        <mxCell id="bvLhNwato9O84c9rAopM-448" style="edgeStyle=orthogonalEdgeStyle;rounded=0;html=1;labelBackgroundColor=#ffffff;startArrow=classic;startFill=1;startSize=4;endArrow=classic;endFill=1;endSize=4;jettySize=auto;orthogonalLoop=1;strokeColor=#4277BB;strokeWidth=2;fontSize=12;fontColor=#4277BB;exitX=0.5;exitY=1;exitDx=0;exitDy=0;entryX=0.5;entryY=0;entryDx=0;entryDy=0;" edge="1" parent="63" source="298" target="296">
          <mxGeometry relative="1" as="geometry">
            <Array as="points">
              <mxPoint x="329" y="359.75" />
              <mxPoint x="329" y="359.75" />
            </Array>
            <mxPoint x="559" y="232.75" as="sourcePoint" />
            <mxPoint x="697" y="98.75" as="targetPoint" />
          </mxGeometry>
        </mxCell>
        <mxCell id="242" style="edgeStyle=elbowEdgeStyle;rounded=0;elbow=vertical;html=1;exitX=0;exitY=0.5;entryX=0;entryY=0.5;labelBackgroundColor=#ffffff;startArrow=classic;startFill=1;startSize=4;endArrow=none;endFill=0;endSize=4;jettySize=auto;orthogonalLoop=1;strokeColor=#4277BB;strokeWidth=2;fontSize=12;fontColor=#4277BB;" parent="63" edge="1">
          <mxGeometry relative="1" as="geometry">
            <mxPoint x="603.4285714285716" y="87.25" as="sourcePoint" />
            <mxPoint x="603.4285714285716" y="87.25" as="targetPoint" />
          </mxGeometry>
        </mxCell>
        <mxCell id="324" style="edgeStyle=orthogonalEdgeStyle;rounded=0;html=1;labelBackgroundColor=#ffffff;startArrow=classic;startFill=1;startSize=4;endArrow=classic;endFill=1;endSize=4;jettySize=auto;orthogonalLoop=1;strokeColor=#4277BB;strokeWidth=2;fontSize=12;fontColor=#4277BB;" parent="63" source="292" target="291" edge="1">
          <mxGeometry relative="1" as="geometry">
            <Array as="points">
              <mxPoint x="264" y="205.75" />
            </Array>
          </mxGeometry>
        </mxCell>
        <mxCell id="109" value="Application component" style="rounded=0;html=1;shadow=0;labelBackgroundColor=none;strokeColor=none;strokeWidth=2;fillColor=#EBC01A;gradientColor=none;fontSize=12;fontColor=#4277BB;align=left;labelPosition=right;verticalLabelPosition=middle;verticalAlign=middle;spacingLeft=5;" parent="63" vertex="1">
          <mxGeometry x="520" y="27.25" width="20" height="10" as="geometry" />
        </mxCell>
        <mxCell id="110" value="Infrastructure services" style="rounded=0;html=1;shadow=0;labelBackgroundColor=none;strokeColor=none;strokeWidth=2;fillColor=#8DC642;gradientColor=none;fontSize=12;fontColor=#4277BB;align=left;labelPosition=right;verticalLabelPosition=middle;verticalAlign=middle;spacingLeft=5;" parent="63" vertex="1">
          <mxGeometry x="520" y="47.25" width="20" height="10" as="geometry" />
        </mxCell>
        <mxCell id="111" value="Management" style="rounded=0;html=1;shadow=0;labelBackgroundColor=none;strokeColor=none;strokeWidth=2;fillColor=#0DB39D;gradientColor=none;fontSize=12;fontColor=#4277BB;align=left;labelPosition=right;verticalLabelPosition=middle;verticalAlign=middle;spacingLeft=5;" parent="63" vertex="1">
          <mxGeometry x="520" y="67.25" width="20" height="10" as="geometry" />
        </mxCell>
        <mxCell id="112" value="Data store" style="rounded=0;html=1;shadow=0;labelBackgroundColor=none;strokeColor=none;strokeWidth=2;fillColor=#335D81;gradientColor=none;fontSize=12;fontColor=#4277BB;align=left;labelPosition=right;verticalLabelPosition=middle;verticalAlign=middle;spacingLeft=5;" parent="63" vertex="1">
          <mxGeometry x="520" y="87.25" width="20" height="10" as="geometry" />
        </mxCell>
        <mxCell id="113" value="Analytics" style="rounded=0;html=1;shadow=0;labelBackgroundColor=none;strokeColor=none;strokeWidth=2;fillColor=#744399;gradientColor=none;fontSize=12;fontColor=#4277BB;align=left;labelPosition=right;verticalLabelPosition=middle;verticalAlign=middle;spacingLeft=5;" parent="63" vertex="1">
          <mxGeometry x="520" y="107.25" width="20" height="10" as="geometry" />
        </mxCell>
        <mxCell id="114" value="Device capabilities" style="rounded=0;html=1;shadow=0;labelBackgroundColor=none;strokeColor=none;strokeWidth=2;fillColor=#A72870;gradientColor=none;fontSize=12;fontColor=#4277BB;align=left;labelPosition=right;verticalLabelPosition=middle;verticalAlign=middle;spacingLeft=5;" parent="63" vertex="1">
          <mxGeometry x="520" y="127.25" width="20" height="10" as="geometry" />
        </mxCell>
        <mxCell id="115" value="Security" style="rounded=0;html=1;shadow=0;labelBackgroundColor=none;strokeColor=none;strokeWidth=2;fillColor=#E52134;gradientColor=none;fontSize=12;fontColor=#4277BB;align=left;labelPosition=right;verticalLabelPosition=middle;verticalAlign=middle;spacingLeft=5;" parent="63" vertex="1">
          <mxGeometry x="520" y="147.25" width="20" height="10" as="geometry" />
        </mxCell>
        <mxCell id="117" value="LEGEND" style="text;html=1;align=left;verticalAlign=middle;fontColor=#4277BB;shadow=0;dashed=0;strokeColor=none;fillColor=none;labelBackgroundColor=none;fontStyle=1;fontSize=14;spacingLeft=0;" parent="63" vertex="1">
          <mxGeometry x="580" y="10" width="70" height="19.5" as="geometry" />
        </mxCell>
        <mxCell id="291" value="EDGE&lt;div&gt;SERVICES&lt;/div&gt;" style="aspect=fixed;perimeter=ellipsePerimeter;html=1;align=center;shadow=0;dashed=0;image;image=img/lib/ibm/infrastructure/edge_services.svg;labelBackgroundColor=#ffffff;strokeColor=#666666;strokeWidth=2;fillColor=#C2952D;gradientColor=none;fontSize=12;fontColor=#4277BB;spacingTop=3;" parent="63" vertex="1">
          <mxGeometry x="164" y="175.75" width="60" height="60" as="geometry" />
        </mxCell>
        <mxCell id="292" value="NGINX WEB SERVER" style="aspect=fixed;perimeter=ellipsePerimeter;html=1;align=center;shadow=0;dashed=0;image;image=img/lib/ibm/infrastructure/transformation_connectivity.svg;labelBackgroundColor=#ffffff;strokeColor=#666666;strokeWidth=2;fillColor=#C2952D;gradientColor=none;fontSize=12;fontColor=#4277BB;spacingTop=3;" parent="63" vertex="1">
          <mxGeometry x="299" y="175.75" width="60" height="60" as="geometry" />
        </mxCell>
        <mxCell id="293" value="END USER&lt;div&gt;APPLICATION&lt;/div&gt;" style="aspect=fixed;perimeter=ellipsePerimeter;html=1;align=center;shadow=0;dashed=0;image;image=img/lib/ibm/applications/enterprise_applications.svg;labelBackgroundColor=#ffffff;strokeColor=#666666;strokeWidth=2;fillColor=#C2952D;gradientColor=none;fontSize=12;fontColor=#4277BB;" parent="63" vertex="1">
          <mxGeometry x="46.5" y="189" width="60" height="60" as="geometry" />
        </mxCell>
        <mxCell id="296" value="PM2 API&lt;div&gt;MANAG&lt;span style=&quot;background-color: light-dark(rgb(255, 255, 255), rgb(18, 18, 18)); color: light-dark(rgb(66, 119, 187), rgb(101, 146, 205));&quot;&gt;EMENT&lt;/span&gt;&lt;/div&gt;" style="aspect=fixed;perimeter=ellipsePerimeter;html=1;align=center;shadow=0;dashed=0;image;image=img/lib/ibm/management/api_management.svg;labelBackgroundColor=#ffffff;strokeColor=#666666;strokeWidth=2;fillColor=#C2952D;gradientColor=none;fontSize=12;fontColor=#4277BB;" parent="63" vertex="1">
          <mxGeometry x="299" y="415.75" width="60" height="60" as="geometry" />
        </mxCell>
        <mxCell id="298" value="API" style="aspect=fixed;perimeter=ellipsePerimeter;html=1;align=center;shadow=0;dashed=0;image;image=img/lib/ibm/applications/application_logic.svg;labelBackgroundColor=#ffffff;strokeColor=#666666;strokeWidth=2;fillColor=#C2952D;gradientColor=none;fontSize=12;fontColor=#4277BB;spacingTop=3;" parent="63" vertex="1">
          <mxGeometry x="299" y="279.75" width="60" height="60" as="geometry" />
        </mxCell>
        <mxCell id="300" value="API testing" style="aspect=fixed;perimeter=ellipsePerimeter;html=1;align=center;shadow=0;dashed=0;image;image=img/lib/ibm/analytics/analytics.svg;labelBackgroundColor=#ffffff;strokeColor=#666666;strokeWidth=2;fillColor=#C2952D;gradientColor=none;fontSize=12;fontColor=#4277BB;spacingTop=3;" parent="63" vertex="1">
          <mxGeometry x="530" y="379.75" width="60" height="60" as="geometry" />
        </mxCell>
        <mxCell id="302" value="Database" style="aspect=fixed;perimeter=ellipsePerimeter;html=1;align=center;shadow=0;dashed=0;image;image=img/lib/ibm/data/data_services.svg;labelBackgroundColor=#ffffff;strokeColor=#666666;strokeWidth=2;fillColor=#C2952D;gradientColor=none;fontSize=12;fontColor=#4277BB;spacingTop=3;" parent="63" vertex="1">
          <mxGeometry x="430" y="279.75" width="60" height="60" as="geometry" />
        </mxCell>
        <mxCell id="321" value="" style="line;strokeWidth=3;direction=south;html=1;shadow=0;labelBackgroundColor=none;fillColor=none;gradientColor=none;fontSize=12;fontColor=#4277BB;align=right;strokeColor=#4277BB;" parent="63" vertex="1">
          <mxGeometry x="185" width="10" height="162.75" as="geometry" />
        </mxCell>
        <mxCell id="343" value="" style="line;strokeWidth=3;direction=south;html=1;shadow=0;labelBackgroundColor=none;fillColor=none;gradientColor=none;fontSize=12;fontColor=#4277BB;align=right;strokeColor=#4277BB;" parent="63" vertex="1">
          <mxGeometry x="189" y="279.75" width="2" height="250.25" as="geometry" />
        </mxCell>
        <mxCell id="349" value="&lt;div&gt;PUBLIC&lt;/div&gt;&lt;div&gt;NETWORK&lt;/div&gt;" style="text;html=1;align=center;verticalAlign=top;fontColor=#4277BB;shadow=0;dashed=0;strokeColor=none;fillColor=none;labelBackgroundColor=none;fontStyle=1;fontSize=16;spacingLeft=5;" parent="63" vertex="1">
          <mxGeometry x="19.5" y="12.75" width="114" height="49" as="geometry" />
        </mxCell>
        <mxCell id="350" value="Oracle CLOUD" style="text;html=1;align=left;verticalAlign=top;fontColor=#4277BB;shadow=0;dashed=0;strokeColor=none;fillColor=none;labelBackgroundColor=none;fontStyle=1;fontSize=16;spacingLeft=5;" parent="63" vertex="1">
          <mxGeometry x="191" y="4.75" width="133" height="20" as="geometry" />
        </mxCell>
        <mxCell id="351" value="" style="swimlane;shadow=0;strokeColor=#4277BB;fillColor=#ffffff;fontColor=#4277BB;align=right;startSize=0;collapsible=0;strokeWidth=3;" parent="63" vertex="1">
          <mxGeometry x="190" y="529.75" width="500" height="90.25" as="geometry" />
        </mxCell>
        <mxCell id="432" value="SECURITY" style="aspect=fixed;perimeter=ellipsePerimeter;html=1;align=left;shadow=0;dashed=0;image;image=img/lib/ibm/blockchain/certificate_authority.svg;labelBackgroundColor=#ffffff;strokeColor=#666666;strokeWidth=3;fillColor=#C2952D;gradientColor=none;fontSize=12;fontColor=#4277BB;labelPosition=right;verticalLabelPosition=middle;verticalAlign=middle;" parent="351" vertex="1">
          <mxGeometry x="60" y="15.129999999999999" width="60" height="60" as="geometry" />
        </mxCell>
        <mxCell id="bvLhNwato9O84c9rAopM-439" value="Recent Tests" style="image;aspect=fixed;perimeter=ellipsePerimeter;html=1;align=center;shadow=0;dashed=0;fontColor=#4277BB;labelBackgroundColor=default;fontSize=12;spacingTop=3;image=img/lib/ibm/data/file_repository.svg;" vertex="1" parent="63">
          <mxGeometry x="430" y="379.75" width="60" height="60" as="geometry" />
        </mxCell>
        <mxCell id="bvLhNwato9O84c9rAopM-450" style="edgeStyle=orthogonalEdgeStyle;rounded=0;html=1;labelBackgroundColor=#ffffff;startArrow=classic;startFill=0;startSize=4;endArrow=classic;endFill=1;endSize=4;jettySize=auto;orthogonalLoop=1;strokeColor=#EEC11B;strokeWidth=2;fontSize=12;fontColor=#4277BB;entryX=0.5;entryY=0;entryDx=0;entryDy=0;exitX=0.5;exitY=1;exitDx=0;exitDy=0;" edge="1" parent="63" source="bvLhNwato9O84c9rAopM-449" target="292">
          <mxGeometry relative="1" as="geometry">
            <Array as="points">
              <mxPoint x="329" y="129.75" />
              <mxPoint x="329" y="129.75" />
            </Array>
            <mxPoint x="339" y="33.75" as="sourcePoint" />
            <mxPoint x="532" y="-42.25" as="targetPoint" />
          </mxGeometry>
        </mxCell>
        <mxCell id="bvLhNwato9O84c9rAopM-449" value="Wishify App" style="image;aspect=fixed;perimeter=ellipsePerimeter;html=1;align=center;shadow=0;dashed=0;fontColor=#4277BB;labelBackgroundColor=default;fontSize=12;spacingTop=3;image=img/lib/ibm/data/file_repository.svg;" vertex="1" parent="63">
          <mxGeometry x="299" y="24.75" width="60" height="60" as="geometry" />
        </mxCell>
        <mxCell id="bvLhNwato9O84c9rAopM-458" style="edgeStyle=orthogonalEdgeStyle;rounded=0;html=1;labelBackgroundColor=#ffffff;startArrow=classic;startFill=0;startSize=4;endArrow=classic;endFill=1;endSize=4;jettySize=auto;orthogonalLoop=1;strokeColor=#EEC11B;strokeWidth=2;fontSize=12;fontColor=#4277BB;exitX=0.5;exitY=1;exitDx=0;exitDy=0;" edge="1" parent="63" source="bvLhNwato9O84c9rAopM-434" target="292">
          <mxGeometry relative="1" as="geometry">
            <Array as="points">
              <mxPoint x="422" y="74.75" />
              <mxPoint x="420" y="74.75" />
              <mxPoint x="420" y="185.75" />
            </Array>
            <mxPoint x="339" y="84.75" as="sourcePoint" />
            <mxPoint x="339" y="185.75" as="targetPoint" />
          </mxGeometry>
        </mxCell>
        <mxCell id="bvLhNwato9O84c9rAopM-434" value="Photo Uploads" style="image;aspect=fixed;perimeter=ellipsePerimeter;html=1;align=center;shadow=0;dashed=0;fontColor=#4277BB;labelBackgroundColor=default;fontSize=12;spacingTop=3;image=img/lib/ibm/data/file_repository.svg;" vertex="1" parent="63">
          <mxGeometry x="392" y="24.75" width="60" height="60" as="geometry" />
        </mxCell>
        <mxCell id="bvLhNwato9O84c9rAopM-467" value="" style="image;aspect=fixed;perimeter=ellipsePerimeter;html=1;align=center;shadow=0;dashed=0;fontColor=#4277BB;labelBackgroundColor=default;fontSize=12;spacingTop=3;image=img/lib/ibm/security/firewall.svg;" vertex="1" parent="63">
          <mxGeometry x="160" y="57.25" width="60" height="60" as="geometry" />
        </mxCell>
        <mxCell id="bvLhNwato9O84c9rAopM-469" style="edgeStyle=orthogonalEdgeStyle;rounded=0;html=1;labelBackgroundColor=#ffffff;startArrow=classic;startFill=0;startSize=4;endArrow=classic;endFill=1;endSize=4;jettySize=auto;orthogonalLoop=1;strokeColor=#EEC11B;strokeWidth=2;fontSize=12;fontColor=#4277BB;entryX=1;entryY=0.5;entryDx=0;entryDy=0;" edge="1" parent="63" source="302" target="298">
          <mxGeometry relative="1" as="geometry">
            <Array as="points" />
            <mxPoint x="450.6" y="289.75" as="sourcePoint" />
            <mxPoint x="369" y="209.87" as="targetPoint" />
          </mxGeometry>
        </mxCell>
        <mxCell id="bvLhNwato9O84c9rAopM-471" style="edgeStyle=orthogonalEdgeStyle;rounded=0;html=1;labelBackgroundColor=#ffffff;startArrow=classic;startFill=0;startSize=4;endArrow=classic;endFill=1;endSize=4;jettySize=auto;orthogonalLoop=1;strokeColor=#EEC11B;strokeWidth=2;fontSize=12;fontColor=#4277BB;entryX=0.994;entryY=0.679;entryDx=0;entryDy=0;exitX=0;exitY=0.5;exitDx=0;exitDy=0;entryPerimeter=0;" edge="1" parent="63" source="bvLhNwato9O84c9rAopM-439" target="298">
          <mxGeometry relative="1" as="geometry">
            <Array as="points">
              <mxPoint x="410" y="409.25" />
              <mxPoint x="410" y="320.25" />
            </Array>
            <mxPoint x="440" y="320.25" as="sourcePoint" />
            <mxPoint x="369" y="320.25" as="targetPoint" />
          </mxGeometry>
        </mxCell>
        <mxCell id="bvLhNwato9O84c9rAopM-474" style="edgeStyle=orthogonalEdgeStyle;rounded=0;html=1;labelBackgroundColor=#ffffff;startArrow=classic;startFill=0;startSize=4;endArrow=classic;endFill=1;endSize=4;jettySize=auto;orthogonalLoop=1;strokeColor=#EEC11B;strokeWidth=2;fontSize=12;fontColor=#4277BB;entryX=1;entryY=0.5;entryDx=0;entryDy=0;exitX=0;exitY=0.5;exitDx=0;exitDy=0;" edge="1" parent="63" source="300" target="bvLhNwato9O84c9rAopM-439">
          <mxGeometry relative="1" as="geometry">
            <Array as="points" />
            <mxPoint x="440" y="320.25" as="sourcePoint" />
            <mxPoint x="369" y="320.25" as="targetPoint" />
          </mxGeometry>
        </mxCell>
        <mxCell id="bvLhNwato9O84c9rAopM-477" style="edgeStyle=orthogonalEdgeStyle;rounded=0;html=1;labelBackgroundColor=#ffffff;startArrow=classic;startFill=1;startSize=4;endArrow=classic;endFill=1;endSize=4;jettySize=auto;orthogonalLoop=1;strokeColor=#4277BB;strokeWidth=2;fontSize=12;fontColor=#4277BB;entryX=1;entryY=0.5;entryDx=0;entryDy=0;exitX=0;exitY=0.75;exitDx=0;exitDy=0;" edge="1" parent="63" source="291" target="293">
          <mxGeometry relative="1" as="geometry">
            <Array as="points">
              <mxPoint x="137" y="219" />
            </Array>
            <mxPoint x="165" y="218.75" as="sourcePoint" />
            <mxPoint x="99" y="169.25" as="targetPoint" />
          </mxGeometry>
        </mxCell>
        <mxCell id="bvLhNwato9O84c9rAopM-478" value="Continuous deployment" style="image;aspect=fixed;perimeter=ellipsePerimeter;html=1;align=center;shadow=0;dashed=0;fontColor=#4277BB;labelBackgroundColor=default;fontSize=12;spacingTop=3;image=img/lib/ibm/applications/automation_tools.svg;" vertex="1" parent="63">
          <mxGeometry x="570" y="219.75" width="60" height="60" as="geometry" />
        </mxCell>
        <mxCell id="bvLhNwato9O84c9rAopM-479" value="STRIPE" style="image;aspect=fixed;perimeter=ellipsePerimeter;html=1;align=center;shadow=0;dashed=0;fontColor=#4277BB;labelBackgroundColor=default;fontSize=12;spacingTop=3;image=img/lib/ibm/applications/saas_applications.svg;" vertex="1" parent="63">
          <mxGeometry x="160" y="319.75" width="60" height="60" as="geometry" />
        </mxCell>
        <mxCell id="bvLhNwato9O84c9rAopM-480" value="MAILGUN" style="image;aspect=fixed;perimeter=ellipsePerimeter;html=1;align=center;shadow=0;dashed=0;fontColor=#4277BB;labelBackgroundColor=default;fontSize=12;spacingTop=3;image=img/lib/ibm/applications/saas_applications.svg;" vertex="1" parent="63">
          <mxGeometry x="160" y="430" width="60" height="60" as="geometry" />
        </mxCell>
        <mxCell id="bvLhNwato9O84c9rAopM-481" style="edgeStyle=orthogonalEdgeStyle;rounded=0;html=1;labelBackgroundColor=#ffffff;startArrow=classic;startFill=0;startSize=4;endArrow=classic;endFill=1;endSize=4;jettySize=auto;orthogonalLoop=1;strokeColor=#EEC11B;strokeWidth=2;fontSize=12;fontColor=#4277BB;entryX=1;entryY=0.5;entryDx=0;entryDy=0;exitX=0;exitY=0.5;exitDx=0;exitDy=0;" edge="1" parent="63" source="298" target="bvLhNwato9O84c9rAopM-479">
          <mxGeometry relative="1" as="geometry">
            <Array as="points" />
            <mxPoint x="295" y="309.35" as="sourcePoint" />
            <mxPoint x="224" y="309.35" as="targetPoint" />
          </mxGeometry>
        </mxCell>
        <mxCell id="bvLhNwato9O84c9rAopM-482" style="edgeStyle=orthogonalEdgeStyle;rounded=0;html=1;labelBackgroundColor=#ffffff;startArrow=classic;startFill=0;startSize=4;endArrow=classic;endFill=1;endSize=4;jettySize=auto;orthogonalLoop=1;strokeColor=#EEC11B;strokeWidth=2;fontSize=12;fontColor=#4277BB;entryX=1;entryY=0.5;entryDx=0;entryDy=0;" edge="1" parent="63" source="298" target="bvLhNwato9O84c9rAopM-480">
          <mxGeometry relative="1" as="geometry">
            <Array as="points">
              <mxPoint x="309" y="400" />
              <mxPoint x="250" y="400" />
              <mxPoint x="250" y="460" />
            </Array>
            <mxPoint x="309" y="340" as="sourcePoint" />
            <mxPoint x="230" y="360" as="targetPoint" />
          </mxGeometry>
        </mxCell>
      </root>
    </mxGraphModel>
  </diagram>
</mxfile>
